<?xml version="1.0" encoding="UTF-8"?>
<!DOCTYPE svg PUBLIC "-//W3C//DTD SVG 1.1//EN" "http://www.w3.org/Graphics/SVG/1.1/DTD/svg11.dtd">
<svg xmlns="http://www.w3.org/2000/svg" version="1.1" width="111px" height="38px" style="shape-rendering:geometricPrecision; text-rendering:geometricPrecision; image-rendering:optimizeQuality; fill-rule:evenodd; clip-rule:evenodd" xmlns:xlink="http://www.w3.org/1999/xlink">
<g><path style="opacity:0.821" fill="#f547f6" d="M -0.5,-0.5 C 1.16667,-0.5 2.83333,-0.5 4.5,-0.5C 5.39811,1.90525 6.89811,3.90525 9,5.5C 10.332,3.34004 11.832,1.34004 13.5,-0.5C 15.1667,-0.5 16.8333,-0.5 18.5,-0.5C 18.5,4.83333 18.5,10.1667 18.5,15.5C 17.1667,15.5 15.8333,15.5 14.5,15.5C 14.665,12.1501 14.4983,8.81677 14,5.5C 12.3333,7.5 10.6667,9.5 9,11.5C 6.62555,9.46105 4.62555,7.12772 3,4.5C 2.50137,8.15159 2.3347,11.8183 2.5,15.5C 1.5,15.5 0.5,15.5 -0.5,15.5C -0.5,10.1667 -0.5,4.83333 -0.5,-0.5 Z"/></g>
<g><path style="opacity:0.828" fill="#f547f5" d="M 20.5,-0.5 C 25.8333,-0.5 31.1667,-0.5 36.5,-0.5C 36.5,4.83333 36.5,10.1667 36.5,15.5C 35.5,15.5 34.5,15.5 33.5,15.5C 33.5,13.8333 33.5,12.1667 33.5,10.5C 30.1667,10.5 26.8333,10.5 23.5,10.5C 23.5,12.1667 23.5,13.8333 23.5,15.5C 22.1667,15.5 20.8333,15.5 19.5,15.5C 19.2175,10.0735 19.5509,4.74012 20.5,-0.5 Z M 23.5,2.5 C 26.8333,2.5 30.1667,2.5 33.5,2.5C 33.5,3.83333 33.5,5.16667 33.5,6.5C 30.1667,6.5 26.8333,6.5 23.5,6.5C 23.5,5.16667 23.5,3.83333 23.5,2.5 Z"/></g>
<g><path style="opacity:0.83" fill="#44baf1" d="M 74.5,-0.5 C 79.8333,-0.5 85.1667,-0.5 90.5,-0.5C 90.5,0.5 90.5,1.5 90.5,2.5C 86.5,2.5 82.5,2.5 78.5,2.5C 78.5,3.5 78.5,4.5 78.5,5.5C 81.8333,5.5 85.1667,5.5 88.5,5.5C 88.5,6.83333 88.5,8.16667 88.5,9.5C 85.1667,9.5 81.8333,9.5 78.5,9.5C 78.5,10.5 78.5,11.5 78.5,12.5C 82.5,12.5 86.5,12.5 90.5,12.5C 90.5,13.5 90.5,14.5 90.5,15.5C 85.1667,15.5 79.8333,15.5 74.5,15.5C 74.5,10.1667 74.5,4.83333 74.5,-0.5 Z"/></g>
<g><path style="opacity:0.858" fill="#44bbf1" d="M 91.5,-0.5 C 92.8333,-0.5 94.1667,-0.5 95.5,-0.5C 95.5,3.83333 95.5,8.16667 95.5,12.5C 99.8333,12.5 104.167,12.5 108.5,12.5C 108.5,13.5 108.5,14.5 108.5,15.5C 102.833,15.5 97.1667,15.5 91.5,15.5C 91.5,10.1667 91.5,4.83333 91.5,-0.5 Z"/></g>
<g><path style="opacity:1" fill="#eb4ef5" d="M 38.5,-0.5 C 40.1667,-0.5 41.8333,-0.5 43.5,-0.5C 44.2485,1.33246 45.2485,2.99913 46.5,4.5C 45.5987,5.29049 44.9321,6.29049 44.5,7.5C 43.2101,6.94227 42.3768,5.94227 42,4.5C 41.5014,8.15159 41.3347,11.8183 41.5,15.5C 40.5,15.5 39.5,15.5 38.5,15.5C 38.5,10.1667 38.5,4.83333 38.5,-0.5 Z"/></g>
<g><path style="opacity:0.733" fill="#9785f3" d="M 56.5,-0.5 C 57.8333,-0.5 59.1667,-0.5 60.5,-0.5C 60.5,1.16667 60.5,2.83333 60.5,4.5C 58.9263,5.98417 57.593,7.65084 56.5,9.5C 56.5,6.16667 56.5,2.83333 56.5,-0.5 Z"/></g>
<g><path style="opacity:0.778" fill="#47b9f1" d="M 69.5,-0.5 C 70.8333,-0.5 72.1667,-0.5 73.5,-0.5C 73.6659,4.51108 73.4993,9.51108 73,14.5C 71.3005,15.4061 69.4672,15.7394 67.5,15.5C 67.2627,14.209 67.596,13.209 68.5,12.5C 69.4849,8.36559 69.8182,4.03225 69.5,-0.5 Z"/></g>
<g><path style="opacity:1" fill="#c567f4" d="M 46.5,4.5 C 48.2624,5.26231 49.2624,6.59565 49.5,8.5C 49.1667,9.5 48.5,10.1667 47.5,10.5C 46.1667,9.83333 45.1667,8.83333 44.5,7.5C 44.9321,6.29049 45.5987,5.29049 46.5,4.5 Z"/></g>
<g><path style="opacity:1" fill="#749cf2" d="M 60.5,4.5 C 60.5,6.5 60.5,8.5 60.5,10.5C 59.5116,11.795 58.5116,13.1283 57.5,14.5C 56.5489,13.0813 56.2155,11.4147 56.5,9.5C 57.593,7.65084 58.9263,5.98417 60.5,4.5 Z"/></g>
<g><path style="opacity:0.808" fill="#f2f9fe" d="M 68.5,12.5 C 67.596,13.209 67.2627,14.209 67.5,15.5C 66.1667,15.5 64.8333,15.5 63.5,15.5C 63.5,14.5 63.5,13.5 63.5,12.5C 65.2956,9.95213 66.9622,9.95213 68.5,12.5 Z"/></g>
<g><path style="opacity:0.133" fill="#ae76f4" d="M 51.5,-0.5 C 52.8333,-0.5 54.1667,-0.5 55.5,-0.5C 55.5,1.83333 55.5,4.16667 55.5,6.5C 53.155,8.51364 51.155,10.847 49.5,13.5C 48.0937,13.0269 47.427,12.0269 47.5,10.5C 48.5,10.1667 49.1667,9.5 49.5,8.5C 50.1174,8.61071 50.6174,8.94404 51,9.5C 51.4983,6.18323 51.665,2.8499 51.5,-0.5 Z"/></g>
<g><path style="opacity:1" fill="#8b8df3" d="M 55.5,6.5 C 55.5,9.5 55.5,12.5 55.5,15.5C 52.9899,15.9465 50.9899,15.2798 49.5,13.5C 51.155,10.847 53.155,8.51364 55.5,6.5 Z"/></g>
<g><path style="opacity:1" fill="#66aff2" d="M 60.5,10.5 C 60.8212,12.0481 61.8212,12.7148 63.5,12.5C 63.5,13.5 63.5,14.5 63.5,15.5C 63.5,15.8333 63.5,16.1667 63.5,16.5C 61.3736,15.9518 59.3736,15.2852 57.5,14.5C 58.5116,13.1283 59.5116,11.795 60.5,10.5 Z"/></g>
<g><path style="opacity:0.854" fill="#fefffe" d="M 43.5,16.5 C 49.1764,16.3339 54.8431,16.5006 60.5,17C 61,17.5 61.5,18 62,18.5C 62.7845,23.8869 62.6178,29.2202 61.5,34.5C 55.5368,35.4959 49.5368,35.8293 43.5,35.5C 43.5,29.1667 43.5,22.8333 43.5,16.5 Z M 47.5,20.5 C 51.1667,20.5 54.8333,20.5 58.5,20.5C 58.5,24.1667 58.5,27.8333 58.5,31.5C 54.8333,31.5 51.1667,31.5 47.5,31.5C 47.5,27.8333 47.5,24.1667 47.5,20.5 Z"/></g>
<g><path style="opacity:0.843" fill="#fefffe" d="M 63.5,16.5 C 64.8333,16.5 66.1667,16.5 67.5,16.5C 67.5,22.8333 67.5,29.1667 67.5,35.5C 66.1667,35.5 64.8333,35.5 63.5,35.5C 63.5,29.1667 63.5,22.8333 63.5,16.5 Z"/></g>
<g><path style="opacity:0.851" fill="#fefffe" d="M 70.5,16.5 C 75.8968,16.2154 81.2302,16.5488 86.5,17.5C 87.4959,23.4632 87.8293,29.4632 87.5,35.5C 86.1667,35.5 84.8333,35.5 83.5,35.5C 83.5,33.5 83.5,31.5 83.5,29.5C 79.8333,29.5 76.1667,29.5 72.5,29.5C 72.5,31.5 72.5,33.5 72.5,35.5C 71.1667,35.5 69.8333,35.5 68.5,35.5C 68.3339,29.8236 68.5006,24.1569 69,18.5C 69.7172,17.9558 70.2172,17.2891 70.5,16.5 Z M 72.5,20.5 C 76.1667,20.5 79.8333,20.5 83.5,20.5C 83.5,22.1667 83.5,23.8333 83.5,25.5C 79.8333,25.5 76.1667,25.5 72.5,25.5C 72.5,23.8333 72.5,22.1667 72.5,20.5 Z"/></g>
<g><path style="opacity:0.826" fill="#fefffe" d="M 89.5,16.5 C 95.8333,16.5 102.167,16.5 108.5,16.5C 108.66,18.1992 108.494,19.8659 108,21.5C 104.167,24.6667 100.333,27.8333 96.5,31C 100.486,31.4988 104.486,31.6655 108.5,31.5C 108.5,32.8333 108.5,34.1667 108.5,35.5C 102.167,35.5 95.8333,35.5 89.5,35.5C 89.2148,33.712 89.5481,32.0453 90.5,30.5C 94.1667,27.3333 97.8333,24.1667 101.5,21C 97.5138,20.5012 93.5138,20.3345 89.5,20.5C 89.5,19.1667 89.5,17.8333 89.5,16.5 Z"/></g>
</svg>
